<!-- svg icons -->
<svg xmlns="http://www.w3.org/2000/svg" style="display: none;">

	<symbol id="share-on-discord" viewBox="0 0 30 30">
	  <path d="M21.9,6L8.1,6C6.9,6,6,6.9,6,8.1l0,13.8C6,23.1,6.9,24,8.1,24l11.7,0l-0.5-1.9l4.8,4.3l0-18.3C24,6.9,23.1,6,21.9,6z" fill="currentcolor"/>
	  <path d="M19.6,11.8c-1.5-1.1-2.9-1.1-2.9-1.1l-0.1,0.2c1.7,0.5,2.6,1.3,2.6,1.3c-1.1-0.6-2.1-0.9-3.1-1
	c-0.7-0.1-1.5-0.1-2.1,0c-0.1,0-0.1,0-0.2,0c-0.4,0-1.2,0.2-2.3,0.6c-0.4,0.2-0.6,0.3-0.6,0.3s0.9-0.8,2.7-1.3l-0.1-0.1
	c0,0-1.4,0-2.9,1.1c0,0-1.5,2.7-1.5,5.9c0,0,0.9,1.5,3.1,1.6c0,0,0.4-0.5,0.7-0.8c-1.3-0.4-1.8-1.2-1.8-1.2s0.1,0.1,0.3,0.2
	c0,0,0,0,0,0c0,0,0.1,0,0.1,0.1c0.3,0.1,0.5,0.3,0.8,0.3c0.4,0.2,0.9,0.3,1.5,0.4c0.8,0.1,1.7,0.2,2.7,0c0.5-0.1,1-0.2,1.5-0.4
	c0.4-0.1,0.8-0.3,1.2-0.6c0,0-0.5,0.8-1.9,1.2c0.3,0.4,0.7,0.8,0.7,0.8c2.3-0.1,3.1-1.6,3.1-1.6C21.1,14.5,19.6,11.8,19.6,11.8z
	 M13.1,16.8c-0.6,0-1-0.5-1-1.1c0-0.6,0.5-1.1,1-1.1c0.6,0,1.1,0.5,1,1.1C14.2,16.3,13.7,16.8,13.1,16.8z M16.9,16.8
	c-0.6,0-1-0.5-1-1.1c0-0.6,0.5-1.1,1-1.1s1,0.5,1,1.1C17.9,16.3,17.5,16.8,16.9,16.8z" fill="var(--foreground, rgb(246, 246, 246))"/>
	</symbol>

	<symbol id="share-on-twitter" viewBox="0 0 30 30">
	  <path d="M23,11c0,0.2,0,0.3,0,0.5C23,16.8,18.8,23,11.3,23C9,23,6.8,22.3,5,21.2c0.3,0,0.6,0.1,1,0.1c1.9,0,3.7-0.6,5.1-1.7
		c-1.8,0-3.3-1.2-3.8-2.8c0.2,0,0.5,0.1,0.8,0.1c0.4,0,0.7,0,1.1-0.1c-1.9-0.4-3.3-2-3.3-4v-0.1c0.6,0.3,1.2,0.5,1.9,0.5
		c-1.1-0.7-1.8-2-1.8-3.4c0-0.7,0.2-1.4,0.6-2c2,2.4,5,4.1,8.5,4.2c-0.1-0.3-0.1-0.6-0.1-0.9c0-2.2,1.8-4,4.1-4c1.2,0,2.2,0.5,3,1.3
		c0.9-0.2,1.8-0.5,2.6-1c-0.3,0.9-1,1.7-1.8,2.2c0.8-0.1,1.6-0.3,2.4-0.6C24.5,9.7,23.8,10.4,23,11z" fill="currentcolor"/>
	</symbol>

	<symbol id="share-on-facebook" viewBox="0 0 30 30">
	  <path d="M18.5,15H16v9H13V15H11V12h2V9a2.65,2.65,0,0,1,3-3h3V9H17a1.08,1.08,0,0,0-1,1v2h3Z" fill="currentcolor"/>
	</symbol>

	<symbol id="share-on-youtube" viewBox="0 0 30 30">
	  <path d="M25.5,9.5c-0.3-1-1-1.8-1.9-2C21.9,7,15,7,15,7S8.1,7,6.4,7.5c-0.9,0.3-1.7,1-1.9,2C4,11.3,4,15,4,15s0,3.7,0.5,5.5
		c0.3,1,1,1.8,1.9,2C8.1,23,15,23,15,23s6.9,0,8.6-0.5c0.9-0.3,1.7-1,1.9-2C26,18.7,26,15,26,15S26,11.3,25.5,9.5z" fill="currentcolor"/>
		<polygon class="st1" points="12.7,18.4 12.7,11.6 18.4,15" fill="var(--foreground, rgb(246, 246, 246))"/>
	</symbol>

	<symbol id="share-on-reddit" viewBox="0 0 30 30">
	  <path d="M27,13.2c0-1.5-1.2-2.7-2.6-2.7c-0.7,0-1.3,0.3-1.8,0.8c-1.8-1.3-4.3-2.2-7-2.3l1.2-5.8L20.6,4c0,1,0.9,1.8,1.9,1.8
		c1,0,1.9-0.9,1.9-1.9S23.5,2,22.5,2c-0.7,0-1.4,0.4-1.7,1.1l-4.4-1c-0.1,0-0.2,0-0.4,0.1c-0.1,0.1-0.2,0.2-0.2,0.3L14.6,9
		C11.8,9,9.3,9.9,7.4,11.2c-0.5-0.5-1.1-0.8-1.8-0.8c-1.5,0-2.6,1.2-2.6,2.7c0,1.1,0.6,2,1.6,2.5c0,0.3-0.1,0.5-0.1,0.8
		C4.5,20.6,9.2,24,15,24s10.5-3.4,10.5-7.5c0-0.3,0-0.5-0.1-0.8C26.4,15.2,27,14.3,27,13.2z" fill="currentcolor"/>

		<path d="M12.7,15.1c0-1.1-0.8-1.9-1.9-1.9c-1,0-1.9,0.9-1.9,1.9c0,1.1,0.8,1.9,1.9,1.9C11.9,17.1,12.7,16.2,12.7,15.1z
		M18.8,19.5c-0.8,0.8-2.5,1.1-3.8,1.1c-1.2,0-3-0.3-3.8-1.1c-0.2-0.2-0.5-0.2-0.7,0c-0.2,0.2-0.2,0.5,0,0.7c1.3,1.3,3.7,1.4,4.5,1.4
		c0.7,0,3.2-0.1,4.5-1.4c0.2-0.2,0.2-0.5,0-0.7C19.3,19.3,19,19.3,18.8,19.5z M19.1,13.2c-1,0-1.9,0.9-1.9,1.9c0,1.1,0.8,1.9,1.9,1.9
		s1.9-0.9,1.9-1.9C21,14.1,20.2,13.2,19.1,13.2z" fill="var(--foreground, rgb(246, 246, 246))"/>
	</symbol>

	<symbol id="share-on-gfycat" viewBox="0 0 30 30">
	  <path d="M14.9,5.4c-1.9,0-3.6,0.7-5,2c-1.4,1.4-2.1,3-2.1,4.9c0,1.2,0.3,2.3,0.9,3.4c0.7,1.3,1.6,2,2.7,2c0.6,0,1.2-0.2,1.7-0.7
		c0.5-0.5,0.7-1,0.7-1.6c0-0.5-0.2-1-0.6-1.5c-0.4-0.6-0.6-1.1-0.6-1.5c0-0.6,0.2-1.2,0.7-1.6c0.5-0.5,1-0.7,1.7-0.7
		c0.6,0,1.2,0.2,1.6,0.7c0.5,0.4,0.7,1,0.7,1.6v4.7c0,0.6-0.2,1.2-0.7,1.6c-0.5,0.4-1,0.7-1.7,0.7h-2.3c-0.6,0-1.2,0.2-1.7,0.7
		c-0.5,0.5-0.7,1-0.7,1.6c0,0.6,0.2,1.2,0.7,1.6c0.5,0.5,1,0.7,1.7,0.7H15c1.9,0,3.6-0.7,5-2c1.4-1.4,2.1-3,2.1-4.9v-4.7
		c0-1.9-0.7-3.6-2.1-4.9C18.5,6.1,16.9,5.4,14.9,5.4z M10.7,5.1c0,0-1-0.3-1.9-0.6C7.8,4.2,6.5,4,6.5,4C6.2,3.9,6,4.2,6,4.5
		c0,0,0.2,1.3,0.5,2.5s0.8,2,0.8,2s0.5-1.4,1.4-2.4C9.6,5.7,10.7,5.1,10.7,5.1z M23.5,4c0,0-1.2,0.2-2.2,0.5c-1,0.2-1.9,0.6-1.9,0.6
		s1,0.6,1.9,1.6c0.9,1,1.4,2.4,1.4,2.4s0.5-0.8,0.8-2C23.8,5.8,24,4.5,24,4.5C24,4.2,23.8,3.9,23.5,4z" fill="currentcolor"/>
	</symbol>

	<symbol id="share-on-zero-to-heroes" viewBox="0 0 30 30">
	  <path d="M21.82,5.76a.27.27,0,0,0-.35.15l.1-.3a.27.27,0,1,0-.5-.2v.3a.27.27,0,0,0-.5-.2l-.3.9-.5-.2a.2.2,0,0,0-.3.2.2.2,0,0,0,.2.3l1.7.5a.2.2,0,0,0,.3-.2l.3-.9A.27.27,0,0,0,21.82,5.76Zm-1,1.76h0l.1-.1a.4.4,0,0,0-.6.3c-.1.5-.2,1.1-.3,1.6s-.3,1.6-.3,1.6l.7-1.4.7-1.5A.4.4,0,0,0,20.79,7.52ZM10.87,7a.22.22,0,0,0-.1-.3.2.2,0,0,0-.3-.2l-.5.2-.3-.9a.27.27,0,0,0-.5.2v-.4a.27.27,0,0,0-.5.2l.1.3a.27.27,0,1,0-.5.2l.3,1.1a.2.2,0,0,0,.3.2l1.7-.5A.22.22,0,0,0,10.87,7Zm-.4,4a9.92,9.92,0,0,0-.3-1.5c-.1-.1-.1-1.1-.3-1.6a.5.5,0,0,0-.9.3l.7,1.4Zm.7-2.73c-.12.59-.19,1.15-.28,1.55-.3,1.23-1.66,6.08-1.66,6.08a7.3,7.3,0,0,1,4.07-2A15.72,15.72,0,0,1,11.17,8.28Zm7.41-1A3.37,3.37,0,0,0,15,4.95a3.37,3.37,0,0,0-3.57,2.37,17.18,17.18,0,0,0,3.57.3A17.18,17.18,0,0,0,18.57,7.32Zm.26,1a15.72,15.72,0,0,1-2.12,5.64,7.3,7.3,0,0,1,4.07,2s-1.36-4.85-1.66-6.08C19,9.43,19,8.87,18.83,8.28ZM11.16,18.51l1.4-1.3-1.4-1.5-.7.9ZM17,9.16a.75.75,0,1,0-.75.75A.75.75,0,0,0,17,9.16Zm-3,.05a.6.6,0,1,0-.6.6A.6.6,0,0,0,14,9.21Zm2.8,10.4L14.56,17,12,20.41l-2.5-1.7c-.7,8,11.4,8.3,11.1.5l-1.5-1.1Zm1.4-4.2-.5-.3-1,.3.7.7Zm-3.16.3c.25,0,2.25-4.46,2.25-4.46A10.92,10.92,0,0,0,15,11.09a10.92,10.92,0,0,0-2.25.16S14.75,15.71,15,15.71Z" fill="currentcolor"/>
	</symbol>

</svg>