<!-- svg icons -->
<svg xmlns="http://www.w3.org/2000/svg" style="display: none;">

	<symbol id="share-on-twitter" viewBox="0 0 30 30">
		<path d="M23.85,10.73c0,.19,0,.37,0,.56A12.15,12.15,0,0,1,11.6,23.5,12.21,12.21,0,0,1,5,21.57a8.77,8.77,0,0,0,1,.06,8.62,8.62,0,0,0,5.35-1.84,4.3,4.3,0,0,1-4-3,4.45,4.45,0,0,0,.81.08,4.24,4.24,0,0,0,1.14-.15,4.3,4.3,0,0,1-3.46-4.21v0a4.34,4.34,0,0,0,2,.53A4.28,4.28,0,0,1,6.46,7.29a12.28,12.28,0,0,0,8.88,4.48,4.46,4.46,0,0,1-.11-1,4.32,4.32,0,0,1,7.45-2.94,8.41,8.41,0,0,0,2.74-1,4.27,4.27,0,0,1-1.89,2.38A8.86,8.86,0,0,0,26,8.51,8.73,8.73,0,0,1,23.85,10.73Z" fill="none" stroke="currentcolor" stroke-linejoin="round"/>
	</symbol>

	<symbol id="share-on-facebook" viewBox="0 0 30 30">
	   <path d="M5.5,5.5v19h8v-6h-2v-3h2v-3a2.65,2.65,0,0,1,3-3h3v3h-2a1.08,1.08,0,0,0-1,1v2h3l-.5,3H16.5v6h8V5.5Z" fill="none" stroke="currentcolor" stroke-linejoin="round"/>
	</symbol>

	<symbol id="share-on-reddit" viewBox="0 0 30 30">
		<polyline points="15 9.5 16.37 3.46 20.5 4.5" fill="none" stroke="currentcolor" stroke-linecap="round" stroke-linejoin="round"/>
		<circle cx="22" cy="5" r="1.5" fill="none" stroke="currentcolor" />
		<circle cx="19" cy="16" r="1.5" fill="none" stroke="currentcolor" />
		<circle cx="11" cy="16" r="1.5" fill="none" stroke="currentcolor" />
		<path d="M26.5,13a2.49,2.49,0,0,0-4.45-1.55A13,13,0,0,0,15,9.5a13,13,0,0,0-7,1.95,2.49,2.49,0,1,0-3.13,3.74A5.56,5.56,0,0,0,4.5,17c0,4.14,4.7,7.5,10.5,7.5S25.5,21.14,25.5,17a5.56,5.56,0,0,0-.32-1.81A2.49,2.49,0,0,0,26.5,13Z" fill="none" stroke="currentcolor" stroke-linejoin="round"/>
		<path d="M11.5,20.5a6.12,6.12,0,0,0,3.5,1,6.12,6.12,0,0,0,3.5-1" fill="none" stroke="currentcolor" stroke-linecap="round" stroke-linejoin="round"/>
	</symbol>

	<symbol id="share-on-zero-to-heroes" viewBox="0 0 30 30">
		<path d="M23,16.4a8,8,0,1,1-16,0c0-5.52,3.76-11.9,8-11.9S23,10.88,23,16.4Z" fill="none" stroke="currentcolor" />
		<polyline points="7 15.5 11.5 18.5 14.5 12.5 17.5 17.5 19.5 14.5 23 16.5" fill="none" stroke="currentcolor" stroke-linejoin="round" />
	</symbol>

</svg>